<svg version="1.1" id="Layer_1" xmlns="http://www.w3.org/2000/svg" xmlns:xlink="http://www.w3.org/1999/xlink" x="0px" y="0px" width="32px" height="32px" viewBox="0 0 32 32" enable-background="new 0 0 32 32" xml:space="preserve">
  <g id="icon">
    <path d="M15.3,1h1.4c0.166,0,0.3,0.134,0.3,0.3v4.313c-0.322,-0.073,-0.656,-0.113,-1,-0.113s-0.678,0.04,-1,0.113V1.3C15,1.134,15.134,1,15.3,1zM6,13.5c0.344,0,0.678,0.04,1,0.113V1.3c0,-0.166,-0.134,-0.3,-0.3,-0.3H5.3c-0.166,0,-0.3,0.134,-0.3,0.3v12.313C5.322,13.54,5.656,13.5,6,13.5zM25,1.3v16.313c0.322,-0.073,0.656,-0.113,1,-0.113s0.678,0.04,1,0.113V1.3c0,-0.166,-0.134,-0.3,-0.3,-0.3h-1.4C25.134,1,25,1.134,25,1.3zM17,30.7V14.387c-0.322,0.073,-0.656,0.113,-1,0.113s-0.678,-0.04,-1,-0.113V30.7c0,0.166,0.134,0.3,0.3,0.3h1.4C16.866,31,17,30.866,17,30.7zM27,30.7v-4.313c-0.322,0.073,-0.656,0.113,-1,0.113s-0.678,-0.04,-1,-0.113V30.7c0,0.166,0.134,0.3,0.3,0.3h1.4C26.866,31,27,30.866,27,30.7zM7,30.7v-8.313c-0.322,0.073,-0.656,0.113,-1,0.113s-0.678,-0.04,-1,-0.113V30.7c0,0.166,0.134,0.3,0.3,0.3h1.4C6.866,31,7,30.866,7,30.7z" fill="#6D6E71"/>
    <path d="M2.5,18c0,-1.93,1.57,-3.5,3.5,-3.5c1.93,0,3.5,1.57,3.5,3.5s-1.57,3.5,-3.5,3.5C4.07,21.5,2.5,19.93,2.5,18zM12.5,10c0,-1.93,1.57,-3.5,3.5,-3.5s3.5,1.57,3.5,3.5s-1.57,3.5,-3.5,3.5S12.5,11.93,12.5,10zM22.5,22c0,-1.93,1.57,-3.5,3.5,-3.5s3.5,1.57,3.5,3.5s-1.57,3.5,-3.5,3.5S22.5,23.93,22.5,22z" fill="#808080"/>
  </g>
</svg>
