<svg version="1.1" id="Layer_1" xmlns="http://www.w3.org/2000/svg" xmlns:xlink="http://www.w3.org/1999/xlink" x="0px" y="0px" width="32px" height="32px" viewBox="0 0 32 32" enable-background="new 0 0 32 32" xml:space="preserve">
  <g id="icon">
    <path d="M23.8122,5.4549c-1.0535,0,-2.0532,0.2301,-2.9556,0.6403c-1.2577,-3.0018,-4.106,-5.098,-7.4206,-5.098c-4.0986,0,-7.485,3.2041,-8.0307,7.3641c-2.5038,0.7688,-4.3187,3.0378,-4.3187,5.718c0,5.3507,5.1554,5.868,8.5769,5.8809c0.0696,0.0311,0.1435,0.0399,0.2218,0.0399H13v-5.701c0,-0.7163,0.5837,-1.299,1.3,-1.299h2.4133c0.7005,0,1.2655,0.556,1.2863,1.2657L18,14.295V20h6.5132c0.0829,0,0.2487,-0.0093,0.4549,-0.0459c3.825,-0.1388,6.064,-3.255,6.064,-7.1971C31.0321,8.7241,27.7997,5.4549,23.8122,5.4549z" fill-rule="evenodd" fill="#217346"/>
    <path d="M17,25.5052V14.295c-0.0049,-0.1666,-0.125,-0.295,-0.2867,-0.295H14.3c-0.1644,0,-0.299,0.1345,-0.299,0.299v11.1944L9.8,21.2234c-0.0738,-0.0739,-0.2,-0.0216,-0.2,0.0828v3.6622c0,0.1244,0.0495,0.2438,0.1376,0.3317l5.6185,5.5845c0.1757,0.1555,0.2351,0.1555,0.4067,-0.0092L21.3623,25.3c0.0881,-0.0879,0.1376,-0.2073,0.1376,-0.3317v-3.6557c0,-0.1044,-0.1262,-0.1566,-0.2,-0.0828L17,25.5052z" fill="#797979"/>
  </g>
</svg>
